<?xml version="1.0" encoding="UTF-8"?>
<!DOCTYPE svg PUBLIC "-//W3C//DTD SVG 1.1//EN" "http://www.w3.org/Graphics/SVG/1.1/DTD/svg11.dtd">
<svg xmlns="http://www.w3.org/2000/svg" version="1.1" width="652px" height="140px" style="shape-rendering:geometricPrecision; text-rendering:geometricPrecision; image-rendering:optimizeQuality; fill-rule:evenodd; clip-rule:evenodd" xmlns:xlink="http://www.w3.org/1999/xlink">
<g><path style="opacity:0.96" fill="white" d="M 101.5,9.5 C 105.422,16.3423 109.088,23.3423 112.5,30.5C 104.804,30.1692 97.1378,30.5025 89.5,31.5C 82.235,43.6982 75.235,56.0316 68.5,68.5C 66.5491,69.7158 65.0491,71.3825 64,73.5C 60.8867,78.7287 58.0534,84.062 55.5,89.5C 52.3656,96.4335 48.6989,103.1 44.5,109.5C 47.9141,115.997 51.5808,122.33 55.5,128.5C 40.1667,129.833 24.8333,129.833 9.5,128.5C 31.7875,88.7554 54.4541,49.2554 77.5,10C 85.4931,9.50029 93.4931,9.33362 101.5,9.5 Z"/></g>
<g><path style="opacity:0.981" fill="white" d="M 101.5,9.5 C 109.528,9.16897 117.528,9.5023 125.5,10.5C 133.221,23.4407 140.554,36.6073 147.5,50C 140.288,62.9261 132.955,75.7594 125.5,88.5C 124.833,88.8333 124.167,89.1667 123.5,89.5C 100.833,89.5 78.1667,89.5 55.5,89.5C 58.0534,84.062 60.8867,78.7287 64,73.5C 65.0491,71.3825 66.5491,69.7158 68.5,68.5C 83.1705,68.6666 97.8371,68.4999 112.5,68C 116.232,62.0357 119.565,55.869 122.5,49.5C 119.426,43.0185 116.093,36.6852 112.5,30.5C 109.088,23.3423 105.422,16.3423 101.5,9.5 Z"/></g>
<g><path style="opacity:0.895" fill="white" d="M 529.5,33.5 C 546.122,30.9705 559.122,36.4705 568.5,50C 565.971,52.0285 563.304,53.8619 560.5,55.5C 550.437,41.6532 537.77,38.8199 522.5,47C 507.84,62.0226 507.84,77.0226 522.5,92C 539.041,100.366 552.375,96.8656 562.5,81.5C 565.284,82.7862 567.617,84.6195 569.5,87C 562.699,99.5754 552.032,105.742 537.5,105.5C 521.109,105.392 509.943,97.7249 504,82.5C 497.844,58.1344 506.344,41.801 529.5,33.5 Z"/></g>
<g><path style="opacity:0.905" fill="white" d="M 232.5,34.5 C 235.572,34.1826 238.572,34.5159 241.5,35.5C 252.228,57.9564 263.228,80.2898 274.5,102.5C 271.216,103.657 267.882,103.824 264.5,103C 261.5,97.3333 258.5,91.6667 255.5,86C 243.153,85.1674 230.82,85.3341 218.5,86.5C 215.833,91.8333 213.167,97.1667 210.5,102.5C 206.878,103.659 203.211,103.825 199.5,103C 210.912,80.3432 221.912,57.5099 232.5,34.5 Z M 236.5,48.5 C 241.392,57.2817 246.059,66.2817 250.5,75.5C 241.5,76.8333 232.5,76.8333 223.5,75.5C 228.117,66.6001 232.451,57.6001 236.5,48.5 Z"/></g>
<g><path style="opacity:0.895" fill="white" d="M 283.5,34.5 C 298.17,34.3334 312.837,34.5001 327.5,35C 342.236,37.9582 347.736,46.7915 344,61.5C 340.844,68.6711 335.344,72.8378 327.5,74C 316.172,74.4999 304.838,74.6665 293.5,74.5C 293.5,84.1667 293.5,93.8333 293.5,103.5C 290.167,103.5 286.833,103.5 283.5,103.5C 283.5,80.5 283.5,57.5 283.5,34.5 Z M 293.5,43.5 C 304.505,43.3335 315.505,43.5002 326.5,44C 332.16,45.1636 335.16,48.6636 335.5,54.5C 335.122,58.7683 333.122,61.935 329.5,64C 317.553,65.3909 305.553,65.8909 293.5,65.5C 293.5,58.1667 293.5,50.8333 293.5,43.5 Z"/></g>
<g><path style="opacity:0.884" fill="white" d="M 369.5,34.5 C 391.5,34.5 413.5,34.5 435.5,34.5C 435.5,37.5 435.5,40.5 435.5,43.5C 426.167,43.5 416.833,43.5 407.5,43.5C 407.5,63.5 407.5,83.5 407.5,103.5C 404.167,103.5 400.833,103.5 397.5,103.5C 397.5,83.5 397.5,63.5 397.5,43.5C 388.167,43.5 378.833,43.5 369.5,43.5C 369.5,40.5 369.5,37.5 369.5,34.5 Z"/></g>
<g><path style="opacity:0.909" fill="white" d="M 438.5,34.5 C 456.833,34.5 475.167,34.5 493.5,34.5C 493.5,37.5 493.5,40.5 493.5,43.5C 478.5,43.5 463.5,43.5 448.5,43.5C 448.5,49.8333 448.5,56.1667 448.5,62.5C 457.5,62.5 466.5,62.5 475.5,62.5C 475.5,65.5 475.5,68.5 475.5,71.5C 466.5,71.5 457.5,71.5 448.5,71.5C 448.5,79.5 448.5,87.5 448.5,95.5C 464.167,95.5 479.833,95.5 495.5,95.5C 495.5,98.1667 495.5,100.833 495.5,103.5C 476.5,103.5 457.5,103.5 438.5,103.5C 438.5,80.5 438.5,57.5 438.5,34.5 Z"/></g>
<g><path style="opacity:0.916" fill="white" d="M 583.5,34.5 C 586.833,34.5 590.167,34.5 593.5,34.5C 593.5,43.5 593.5,52.5 593.5,61.5C 606.5,61.5 619.5,61.5 632.5,61.5C 632.5,52.5 632.5,43.5 632.5,34.5C 635.5,34.5 638.5,34.5 641.5,34.5C 641.5,57.5 641.5,80.5 641.5,103.5C 638.5,103.5 635.5,103.5 632.5,103.5C 632.5,92.5 632.5,81.5 632.5,70.5C 619.5,70.5 606.5,70.5 593.5,70.5C 593.5,81.5 593.5,92.5 593.5,103.5C 590.167,103.5 586.833,103.5 583.5,103.5C 583.5,80.5 583.5,57.5 583.5,34.5 Z"/></g>
<g><path style="opacity:0.929" fill="white" d="M 353.5,65.5 C 362.5,65.5 371.5,65.5 380.5,65.5C 380.5,68.1667 380.5,70.8333 380.5,73.5C 371.5,73.5 362.5,73.5 353.5,73.5C 353.5,70.8333 353.5,68.1667 353.5,65.5 Z"/></g>
<g><path style="opacity:0.949" fill="white" d="M 125.5,88.5 C 132.841,88.3337 140.174,88.5003 147.5,89C 155.419,102.17 163.086,115.503 170.5,129C 154.833,129.667 139.167,129.667 123.5,129C 127.293,122.581 130.96,116.081 134.5,109.5C 130.821,102.806 127.154,96.1395 123.5,89.5C 124.167,89.1667 124.833,88.8333 125.5,88.5 Z"/></g>
</svg>
