<svg width="114" height="36" viewBox="0 0 114 36" fill="none" xmlns="http://www.w3.org/2000/svg">
<path d="M15.5 35.3847C14.93 35.3847 14.39 35.2547 13.96 35.0047L1.53 27.8247C0.659999 27.3247 0 26.1847 0 25.1747V10.8247C0 9.81469 0.660001 8.67469 1.54 8.16469L13.97 0.984688C14.81 0.494687 16.2 0.494687 17.04 0.984688L29.47 8.16469C30.35 8.66469 31.01 9.81469 31.01 10.8247V25.1747C31.01 26.1847 30.35 27.3247 29.47 27.8347L17.03 35.0047C16.61 35.2547 16.06 35.3847 15.5 35.3847ZM15.5 2.19469C15.21 2.19469 14.93 2.25469 14.75 2.36469L2.32 9.54469C1.94 9.76469 1.57 10.3947 1.57 10.8347V25.1847C1.57 25.6247 1.93 26.2547 2.32 26.4747L14.75 33.6547C15.11 33.8647 15.88 33.8647 16.24 33.6547L28.67 26.4747C29.05 26.2547 29.42 25.6247 29.42 25.1847V10.8247C29.42 10.3847 29.06 9.75469 28.67 9.53469L16.24 2.35469C16.06 2.25469 15.78 2.19469 15.5 2.19469Z" fill="white"/>
<path d="M11 21.0719L10.12 16.8019H13.59C13.99 16.8019 14.34 17.0519 14.46 17.4219L15.21 21.0719H17.13L16.3 17.0319V17.0219C16.28 16.9419 16.23 16.8719 16.2 16.8019H19.63C20.03 16.8019 20.38 17.0519 20.51 17.4219L21.26 21.0719H23.18L22.35 17.0319V17.0219C22.03 15.7819 20.91 14.9219 19.63 14.9219H7.81L9.08 21.0719H11Z" fill="white"/>
<path d="M47.63 15.6641C46.93 15.6641 45.78 16.1541 45.61 16.2341C45.59 16.2441 45.36 16.3241 45.09 16.5241C44.78 16.0141 44.25 15.6741 43.67 15.6741C42.97 15.6741 41.82 16.1641 41.65 16.2441C41.64 16.2441 41.56 16.2741 41.44 16.3341V15.6741H40.12V18.6541V21.9941H41.44V18.6541C41.44 17.7541 42.02 17.5041 42.12 17.4641C42.56 17.2741 43.35 16.9941 43.66 16.9941C43.86 16.9941 44.08 17.2641 44.08 17.6541V18.6641V22.0041H45.4V18.6641C45.4 17.7641 45.98 17.5141 46.08 17.4741C46.52 17.2841 47.31 17.0041 47.62 17.0041C47.82 17.0041 48.04 17.2841 48.04 17.6641V22.0041H49.36V17.6641C49.36 16.5541 48.58 15.6641 47.63 15.6641Z" fill="white"/>
<path d="M112 15.6641H109.74C108.64 15.6641 107.74 16.4641 107.74 17.4341V19.6041V20.2041C107.74 21.1841 108.64 21.9741 109.74 21.9741H112C113.1 21.9741 114 21.1741 114 20.2041V19.6041V17.4341C114 16.4641 113.11 15.6641 112 15.6641ZM112.69 20.2141C112.69 20.4341 112.41 20.6741 112 20.6741H109.74C109.34 20.6741 109.05 20.4341 109.05 20.2141V19.6141V17.4441C109.05 17.2241 109.33 16.9841 109.74 16.9841H112C112.41 16.9841 112.69 17.2241 112.69 17.4441V19.6141V20.2141Z" fill="white"/>
<path d="M56.39 20.4741C56.27 20.5941 56.1 20.6641 55.93 20.6641H53.08C52.72 20.6641 52.42 20.3641 52.42 20.0041V19.8041H55.29C56.38 19.8041 57.26 19.0141 57.26 18.0341V17.4341C57.26 16.4541 56.37 15.6641 55.29 15.6641H53.08C51.99 15.6641 51.11 16.4641 51.11 17.4341V17.9841V18.0341V20.0041C51.11 21.0941 52 21.9741 53.08 21.9741H55.93C56.46 21.9741 56.96 21.7641 57.33 21.3941L56.39 20.4741ZM52.42 17.9941V17.4441C52.42 17.2041 52.73 16.9841 53.08 16.9841H55.29C55.64 16.9841 55.95 17.1941 55.95 17.4441V18.0441C55.95 18.2841 55.64 18.5041 55.29 18.5041H52.42V18.0441V17.9941Z" fill="white"/>
<path d="M79.49 18.1809H77.03C76.67 18.1609 76.42 17.9509 76.42 17.7609V17.7409V17.6409V17.4509C76.42 17.2509 76.69 17.0209 77.08 17.0209H79.75C79.95 17.0209 80.13 17.0809 80.26 17.1909L81.1 16.1809C80.73 15.8809 80.26 15.7109 79.75 15.7109H77.08C75.99 15.7109 75.11 16.4909 75.11 17.4509V17.6409V17.7409V17.7609C75.11 18.7209 76 19.5009 77.08 19.5009H79.54C79.9 19.5209 80.15 19.7309 80.15 19.9209V19.9409V19.9809V20.2309C80.15 20.4309 79.88 20.6609 79.49 20.6609H76.46C76.26 20.6609 76.08 20.6009 75.95 20.4909L75.11 21.5009C75.48 21.8009 75.95 21.9709 76.46 21.9709H79.49C80.58 21.9709 81.46 21.1909 81.46 20.2309V19.9809V19.9409V19.9209C81.47 18.9709 80.58 18.1809 79.49 18.1809Z" fill="white"/>
<path d="M60.94 15.6584C59.85 15.6584 58.97 16.4584 58.97 17.4284V17.9784V18.0284V21.9784H60.29V18.0284V17.9784V17.4284C60.29 17.1884 60.6 16.9684 60.95 16.9684H63V15.6484H60.94V15.6584Z" fill="white"/>
<path d="M65.93 15.6797H64.61V21.9797H65.93V15.6797Z" fill="white"/>
<path d="M84.94 20.7031C84.59 20.7031 84.28 20.4931 84.28 20.2431V19.6931V19.6431V17.0231H85.64V15.7031H84.28V13.9531H82.96V19.6331V19.6831V20.2331C82.96 21.2131 83.85 22.0131 84.93 22.0131H86.94V20.7031H84.94Z" fill="white"/>
<path d="M93.36 15.6606V15.8506V18.8306C93.36 20.0706 92.78 20.2206 92.65 20.2406C92.18 20.3606 90.83 20.6606 90.26 20.6606C90 20.6606 89.79 20.3606 89.79 20.0006V15.6606H88.47V20.0006C88.47 21.0906 89.27 21.9706 90.26 21.9706C91.09 21.9706 92.78 21.5606 92.88 21.5306C93.02 21.5206 93.19 21.4706 93.37 21.3806V21.9606H94.69V18.8106V15.8306V15.6406H93.36V15.6606Z" fill="white"/>
<path d="M101.26 13.7913V16.0713C101.12 16.0113 100.98 15.9813 100.87 15.9713C100.79 15.9613 98.96 15.7413 98.16 15.7413C97.17 15.7413 96.37 16.6213 96.37 17.7113V18.4913V19.6413V20.0013C96.37 21.0913 97.17 21.9713 98.16 21.9713C98.97 21.9713 100.8 21.7513 100.83 21.7413C100.96 21.7313 101.11 21.7013 101.26 21.6313V21.9713H102.58V20.5813V19.1012V18.6113V17.1213V13.7812H101.26V13.7913ZM100.71 20.4412C100.69 20.4412 98.88 20.6613 98.16 20.6613C97.9 20.6613 97.69 20.3613 97.69 20.0013V19.6413V18.4913V17.7113C97.69 17.3513 97.91 17.0513 98.16 17.0513C98.89 17.0513 100.7 17.2713 100.72 17.2713C100.92 17.3013 101.26 17.6313 101.26 18.6113V19.1012C101.26 20.0812 100.91 20.4112 100.71 20.4412Z" fill="white"/>
<path d="M67.26 21.9841H68.96L70.68 19.8641L72.4 21.9841H74.1L71.53 18.8241L74.1 15.6641H72.4L70.68 17.7841L68.96 15.6641H67.26L69.83 18.8241L67.26 21.9841Z" fill="white"/>
<path d="M105.92 15.6719H104.52V21.9819H105.92V15.6719Z" fill="white"/>
</svg>
