<?xml version="1.0" encoding="utf-8"?>
<!-- Generator: Adobe Illustrator 26.5.0, SVG Export Plug-In . SVG Version: 6.00 Build 0)  -->
<svg version="1.1" id="Layer_1" xmlns="http://www.w3.org/2000/svg" xmlns:xlink="http://www.w3.org/1999/xlink" x="0px" y="0px"
	 viewBox="0 0 192 64" style="enable-background:new 0 0 192 64;" xml:space="preserve">
<style type="text/css">
	.st0{fill-rule:evenodd;clip-rule:evenodd;fill:#FFFFFF;}
	.st1{fill:#FFFFFF;}
</style>
<g>
	<path class="st0" d="M19,16h26c1.7,0,3,1.3,3,3v26c0,1.7-1.3,3-3,3H19c-1.7,0-3-1.3-3-3V19C16,17.3,17.3,16,19,16z M30,30h-5v4h5v5
		h4v-5h5v-4h-5v-5h-4V30z"/>
	<path class="st1" d="M62.3,24.7V40h-2.8V24.7H62.3z M67.5,33.3V40h-2.7V28.5h2.6v1.9h0.1c0.5-1.3,1.7-2.1,3.4-2.1
		c2.4,0,3.9,1.6,3.9,4.3V40h-2.7v-6.9c0-1.5-0.8-2.4-2.2-2.4C68.5,30.7,67.5,31.6,67.5,33.3z M83.1,28.5v2.1h-2.4V40H78v-9.4h-1.7
		v-2.1H78v-1.1c0-2.3,1.6-3.5,3.6-3.5c0.9,0,1.7,0.2,2.1,0.3l-0.5,2.1c-0.3-0.1-0.7-0.2-1-0.2c-1,0-1.4,0.5-1.4,1.4v0.9H83.1
		L83.1,28.5z M89.5,40.2c-3.5,0-5.6-2.3-5.6-5.9c0-3.5,2.1-5.9,5.4-5.9c2.8,0,5.2,1.8,5.2,5.8V35h-8c0,2,1.2,3.1,2.9,3.1
		c1.2,0,2.1-0.5,2.4-1.5l2.5,0.3C94,38.9,92.2,40.2,89.5,40.2L89.5,40.2z M86.6,33.2H92c0-1.6-1.1-2.7-2.6-2.7
		C87.8,30.5,86.7,31.7,86.6,33.2z M96.5,40V28.5h2.6v1.9h0.1c0.4-1.3,1.5-2.1,2.8-2.1c0.3,0,0.7,0,1,0.1v2.5
		c-0.2-0.1-0.8-0.2-1.3-0.2c-1.5,0-2.6,1-2.6,2.5V40H96.5L96.5,40z M104.5,40V28.5h2.6v1.9h0.1c0.5-1.3,1.6-2.1,3.2-2.1
		c1.5,0,2.7,0.8,3.1,2.1h0.1c0.5-1.3,1.8-2.1,3.4-2.1c2.1,0,3.6,1.4,3.6,3.9V40h-2.7v-7.3c0-1.4-0.9-2.1-2-2.1
		c-1.3,0-2.1,0.9-2.1,2.2V40h-2.6v-7.4c0-1.2-0.8-1.9-1.9-1.9c-1.2,0-2.1,1-2.1,2.4v7H104.5L104.5,40z M128.1,40.2
		c-3.5,0-5.6-2.3-5.6-5.9c0-3.5,2.1-5.9,5.4-5.9c2.8,0,5.2,1.8,5.2,5.8V35h-8c0,2,1.2,3.1,2.9,3.1c1.2,0,2.1-0.5,2.4-1.5l2.5,0.3
		C132.6,38.9,130.7,40.2,128.1,40.2L128.1,40.2z M125.2,33.2h5.4c0-1.6-1.1-2.7-2.6-2.7C126.4,30.5,125.3,31.7,125.2,33.2z
		 M139.3,40.2c-2.7,0-4.7-2.1-4.7-5.9c0-3.8,2.1-5.9,4.7-5.9c2,0,2.9,1.2,3.3,2h0.1v-5.7h2.7V40h-2.7v-1.8h-0.2
		C142.2,39,141.3,40.2,139.3,40.2z M140.1,38c1.7,0,2.7-1.5,2.7-3.7c0-2.2-1-3.7-2.7-3.7c-1.8,0-2.7,1.5-2.7,3.7
		C137.4,36.4,138.3,38,140.1,38z M148,40V28.5h2.7V40H148z M149.3,26.9c-0.9,0-1.6-0.7-1.6-1.5c0-0.8,0.7-1.5,1.6-1.5
		c0.9,0,1.6,0.7,1.6,1.5C150.9,26.3,150.2,26.9,149.3,26.9L149.3,26.9z M158.1,40.2c-3.4,0-5.5-2.4-5.5-5.9c0-3.5,2.1-5.9,5.5-5.9
		c2.8,0,4.7,1.6,4.9,4.1h-2.6c-0.2-1.1-1-1.9-2.3-1.9c-1.7,0-2.8,1.4-2.8,3.7c0,2.3,1.1,3.8,2.8,3.8c1.2,0,2.1-0.7,2.3-1.9h2.6
		C162.8,38.5,160.9,40.2,158.1,40.2z M168.1,40.2c-2.2,0-3.8-1.2-3.8-3.4c0-2.6,2.1-3.2,4.3-3.5c2-0.2,2.8-0.3,2.8-1v0
		c0-1.1-0.7-1.8-1.9-1.8c-1.3,0-2.1,0.7-2.3,1.5l-2.5-0.4c0.6-2.1,2.4-3.2,4.9-3.2c2.2,0,4.7,0.9,4.7,3.9V40h-2.6v-1.6h-0.1
		C171,39.4,169.9,40.2,168.1,40.2L168.1,40.2z M168.8,38.2c1.6,0,2.7-1.1,2.7-2.4v-1.3c-0.4,0.3-1.8,0.5-2.5,0.6
		c-1.2,0.2-2.1,0.6-2.1,1.6C166.9,37.7,167.7,38.2,168.8,38.2L168.8,38.2z"/>
</g>
</svg>
