<svg enable-background="new 0 0 304.27 85.04" viewBox="0 0 304.27 85.04" xmlns="http://www.w3.org/2000/svg">
    <g fill="#fff">
        <path clip-rule="evenodd" d="m56.31 52.41c5.45 0 9.89-4.44 9.89-9.89 0-5.04-3.79-9.21-8.67-9.81-.92-6.04-6.14-10.61-12.37-10.61-4.19 0-8.07 2.09-10.38 5.52-.59-.17-1.2-.25-1.82-.25-3.28 0-6.02 2.4-6.54 5.54-4.39 1.05-7.57 5-7.57 9.61 0 5.45 4.44 9.89 9.89 9.89h9.18v5.92c0 1.04-.85 1.89-1.89 1.89v2.73h13.02v-2.73c-1.04 0-1.89-.85-1.89-1.89v-5.92zm-11.49 7.81h-4.6c.26-.58.41-1.22.41-1.89v-5.92h1.89v-2.73h-1.89-1.36-10.54c-3.95 0-7.16-3.21-7.16-7.16 0-3.62 2.7-6.67 6.29-7.11l1.21-.15-.01-1.22c0-.02 0-.03 0-.06.01-2.15 1.76-3.89 3.91-3.89.62 0 1.22.14 1.77.42l1.18.6.63-1.17c1.72-3.16 5.02-5.13 8.61-5.13 5.2 0 9.49 4.06 9.78 9.25l.07 1.29h1.29.02c3.95 0 7.16 3.21 7.16 7.16s-3.21 7.16-7.16 7.16h-11.9v8.65c-.01.68.14 1.32.4 1.9z" fill-rule="evenodd"/><path d="m115.88 27.65h-13.94v-5.05h33.64v5.05h-13.94v35.61h-5.75v-35.61z"/><path d="m144.47 33.58c1.9-.93 4.2-1.39 6.91-1.39v5.4c-.31-.04-.74-.06-1.28-.06-3.02 0-5.39.9-7.12 2.7-1.72 1.8-2.59 4.37-2.59 7.7v15.34h-5.58v-30.79h5.34v5.17c.99-1.78 2.43-3.14 4.32-4.07z"/><path d="m184.22 49.73h-24.98c.35 2.71 1.54 4.89 3.57 6.54s4.56 2.47 7.58 2.47c3.68 0 6.64-1.24 8.89-3.72l3.08 3.6c-1.39 1.63-3.13 2.87-5.2 3.72s-4.39 1.28-6.94 1.28c-3.25 0-6.14-.67-8.66-2-2.52-1.34-4.46-3.2-5.84-5.61-1.38-2.4-2.06-5.11-2.06-8.13 0-2.98.67-5.67 2-8.08 1.34-2.4 3.18-4.27 5.52-5.61s4.99-2 7.93-2 5.57.67 7.87 2 4.11 3.21 5.4 5.61c1.3 2.4 1.95 5.15 1.95 8.25 0 .42-.03.98-.11 1.68zm-21.82-10.4c-1.8 1.63-2.86 3.76-3.17 6.39h19.75c-.31-2.59-1.37-4.72-3.17-6.36-1.8-1.65-4.04-2.47-6.71-2.47s-4.9.82-6.7 2.44z"/><path d="m218.94 49.73h-24.98c.35 2.71 1.54 4.89 3.57 6.54s4.56 2.47 7.58 2.47c3.68 0 6.64-1.24 8.89-3.72l3.08 3.6c-1.39 1.63-3.13 2.87-5.2 3.72s-4.39 1.28-6.94 1.28c-3.25 0-6.14-.67-8.66-2-2.52-1.34-4.46-3.2-5.84-5.61-1.38-2.4-2.06-5.11-2.06-8.13 0-2.98.67-5.67 2-8.08 1.34-2.4 3.18-4.27 5.52-5.61s4.99-2 7.93-2 5.57.67 7.87 2 4.11 3.21 5.4 5.61c1.3 2.4 1.95 5.15 1.95 8.25.01.42-.03.98-.11 1.68zm-21.81-10.4c-1.8 1.63-2.86 3.76-3.17 6.39h19.75c-.31-2.59-1.37-4.72-3.17-6.36-1.8-1.65-4.04-2.47-6.71-2.47s-4.9.82-6.7 2.44z"/><path d="m227.59 62.6c-2.32-.68-4.14-1.54-5.46-2.59l2.32-4.42c1.35.97 3 1.74 4.94 2.32s3.89.87 5.87.87c4.88 0 7.32-1.39 7.32-4.18 0-.93-.33-1.66-.99-2.21-.66-.54-1.48-.94-2.47-1.19s-2.39-.53-4.21-.84c-2.48-.39-4.5-.83-6.07-1.34-1.57-.5-2.92-1.36-4.04-2.56s-1.69-2.89-1.69-5.05c0-2.79 1.16-5.03 3.49-6.71s5.44-2.53 9.35-2.53c2.05 0 4.11.25 6.16.76 2.05.5 3.74 1.18 5.05 2.03l-2.38 4.42c-2.52-1.63-5.48-2.44-8.89-2.44-2.36 0-4.16.39-5.4 1.16s-1.86 1.8-1.86 3.08c0 1.01.35 1.8 1.05 2.38s1.56 1.01 2.58 1.28c1.03.27 2.47.58 4.33.93 2.48.43 4.48.88 6.01 1.36 1.53.49 2.84 1.31 3.92 2.47s1.63 2.79 1.63 4.88c0 2.79-1.19 5.01-3.57 6.65-2.38 1.65-5.63 2.47-9.73 2.47-2.52.02-4.94-.32-7.26-1z"/><path d="m275.46 35.32c2.27 2.09 3.4 5.21 3.4 9.35v18.59h-5.29v-4.06c-.93 1.43-2.26 2.53-3.98 3.28s-3.77 1.13-6.13 1.13c-3.45 0-6.21-.83-8.28-2.5s-3.11-3.85-3.11-6.57c0-2.71.99-4.89 2.96-6.54 1.98-1.65 5.11-2.47 9.41-2.47h8.83v-1.1c0-2.4-.7-4.24-2.09-5.52s-3.45-1.92-6.16-1.92c-1.82 0-3.6.3-5.35.9-1.74.6-3.21 1.4-4.42 2.41l-2.32-4.18c1.59-1.28 3.49-2.26 5.69-2.93 2.21-.68 4.55-1.02 7.03-1.02 4.28.02 7.54 1.06 9.81 3.15zm-5.55 22.57c1.55-.95 2.67-2.29 3.37-4.04v-4.3h-8.6c-4.73 0-7.09 1.59-7.09 4.76 0 1.55.6 2.77 1.8 3.66s2.87 1.34 5 1.34 3.97-.47 5.52-1.42z"/><path d="m304.27 61.47c-.81.7-1.82 1.23-3.02 1.6s-2.44.55-3.72.55c-3.1 0-5.5-.83-7.2-2.5-1.71-1.67-2.56-4.05-2.56-7.15v-16.9h-5.23v-4.59h5.23v-6.74h5.58v6.74h8.83v4.59h-8.83v16.67c0 1.67.42 2.94 1.25 3.83s2.02 1.34 3.57 1.34c1.7 0 3.16-.48 4.36-1.45z"/>
    </g>
</svg>